<svg id="Layer_1" enable-background="new 0 0 508.544 508.544" height="512" viewBox="0 0 508.544 508.544" width="512" xmlns="http://www.w3.org/2000/svg"><circle cx="254.272" cy="254.272" fill="#f0a567" r="254.215"/><path d="m434.029 74.515c-99.345-99.345-260.154-99.36-359.514 0-62.141 62.141-85.088 147.538-70 227.453 33.414 36.233 88.682 66.068 173.796 32.632 98.479-38.686 216.93-103.899 327.197-119.405-8.139-53.062-32.805-102.006-71.479-140.68z" fill="#fdaa6a"/><path d="m67.148 82.214c70.446-9.019 152.85-6.587 218.926 32.356 79.468 46.835 152.157 48.627 201.461 38.318-72.795-167.431-295.066-206.699-420.387-70.674z" fill="#f9b78a"/><path d="m434.029 74.515c-99.345-99.345-260.154-99.36-359.514 0-99.347 99.347-99.36 260.154 0 359.514 99.345 99.345 260.154 99.36 359.514 0 99.347-99.347 99.359-260.154 0-359.514zm-23.321 336.192c-86.459 86.458-226.403 86.468-312.872 0-86.458-86.458-86.468-226.403 0-312.871 86.459-86.458 226.403-86.468 312.872 0 37.875 37.875 60.326 87.063 64.196 139.945h-220.632c-9.107 0-16.491 7.383-16.491 16.49s7.383 16.49 16.491 16.49h220.632c-3.87 52.883-26.322 102.072-64.196 139.946z"/></svg>