<svg id="Layer_1" enable-background="new 0 0 510.874 510.874" height="512" viewBox="0 0 510.874 510.874" width="512" xmlns="http://www.w3.org/2000/svg"><path d="m137.925 277.188 104.974 181.132c5.56 9.594 19.481 9.65 25.074 0l104.974-181.132c5.587-9.64-1.377-21.756-12.537-21.756h-209.948c-11.14.001-18.133 12.101-12.537 21.756z" fill="#c69a85"/><g fill="#e88793"><path d="m269.704 453.299-119.464-206.135c-6.328-10.918-22.17-10.983-28.535 0l-119.464 206.135c-6.358 10.971 1.567 24.759 14.268 24.759h238.927c12.678 0 20.637-13.771 14.268-24.759z"/><path d="m508.631 453.299-119.463-206.135c-6.328-10.918-22.17-10.983-28.535 0l-119.465 206.135c-6.358 10.971 1.567 24.759 14.268 24.759h238.928c12.678 0 20.637-13.771 14.267-24.759z"/><path d="m389.168 247.164-119.464-206.135c-6.328-10.918-22.17-10.983-28.535 0l-119.464 206.135c-6.358 10.971 1.567 24.759 14.268 24.759h238.927c12.678 0 20.637-13.77 14.268-24.759z"/></g><path d="m150.24 247.164c-6.328-10.918-22.17-10.983-28.535 0l-85.59 147.687c53.965 19.49 124.877 31.048 164.487-19.591 4.593-5.872 9.555-11.058 14.802-15.657z" fill="#fc93a0"/><path d="m269.704 41.029c-6.328-10.918-22.17-10.983-28.535 0l-85.107 146.852c31.792 17.63 72.225 24.838 118.953.341 22.341-11.712 45.214-18.281 67.627-21.339z" fill="#fc93a0"/><path d="m389.168 247.164c-6.328-10.918-22.17-10.983-28.535 0l-52.562 90.696c21.009 9.5 50.332 23.537 91.273 44.285 30.51 15.461 56.256 19.608 77.642 16.547z" fill="#fc93a0"/><path d="m508.631 453.299-238.927-412.27c-6.328-10.918-22.17-10.983-28.535 0l-238.928 412.27c-6.358 10.971 1.567 24.759 14.268 24.759h477.855c12.678 0 20.637-13.771 14.267-24.759zm-253.195-24.619-90.848-156.757h181.695zm0-346.494 90.848 156.757h-181.695zm-210.31 362.891 90.847-156.757 90.847 156.757zm238.926 0 90.848-156.757 90.848 156.757z"/></svg>