<?xml version="1.0" encoding="iso-8859-1"?>
<!-- Generator: Adobe Illustrator 19.0.0, SVG Export Plug-In . SVG Version: 6.00 Build 0)  -->
<svg version="1.1" id="Capa_1" xmlns="http://www.w3.org/2000/svg" xmlns:xlink="http://www.w3.org/1999/xlink" x="0px" y="0px"
	 viewBox="0 0 384.005 384.005" style="enable-background:new 0 0 384.005 384.005;" xml:space="preserve">
<polygon style="fill:#FFDC7B;" points="122.291,167.419 147.387,244.795 228.571,244.795 162.883,292.627 187.971,370.003 
	122.291,322.171 56.595,370.003 81.683,292.627 16.003,244.795 97.187,244.795 "/>
<g>
	<path style="fill:#141F38;" d="M122.291,149.419c-6.936,0-13.08,4.472-15.216,11.064l-21.512,66.312h-69.56
		c-6.928,0-13.072,4.464-15.216,11.048c-2.144,6.592,0.192,13.808,5.8,17.888l56.304,41l-21.512,66.336
		c-2.144,6.592,0.208,13.816,5.824,17.888c5.608,4.064,13.208,4.064,18.816-0.016l56.272-40.968l56.264,40.968
		c2.8,2.04,6.112,3.064,9.416,3.064c3.296,0,6.592-1.016,9.392-3.048c5.608-4.072,7.968-11.296,5.824-17.888l-21.504-66.336
		l56.304-41c5.6-4.08,7.944-11.296,5.8-17.888c-2.144-6.584-8.288-11.048-15.216-11.048h-69.552l-21.512-66.312
		C135.363,153.883,129.219,149.419,122.291,149.419z M179.411,258.795l-25.944,18.896c-5.592,4.072-7.936,11.288-5.8,17.864
		l9.888,30.504l-25.848-18.824c-5.616-4.088-13.216-4.088-18.832,0l-25.856,18.824l9.888-30.504c2.136-6.584-0.2-13.792-5.8-17.864
		l-25.944-18.896h32.024c6.936,0,13.08-4.472,15.216-11.064l9.88-30.464l9.88,30.464c2.144,6.592,8.288,11.064,15.216,11.064
		H179.411z"/>
	<path style="fill:#141F38;" d="M356.675,4.699l-167.344,167.68c-6.24,6.256-6.232,16.384,0.024,22.624
		c3.12,3.12,7.208,4.672,11.304,4.672c4.104,0,8.2-1.568,11.328-4.696l167.344-167.68c6.24-6.256,6.232-16.384-0.024-22.624
		C373.051-1.565,362.915-1.557,356.675,4.699z"/>
	<path style="fill:#141F38;" d="M176.331,120.563l84.552-84.728c6.24-6.256,6.232-16.384-0.024-22.624
		c-6.248-6.24-16.384-6.232-22.624,0.024l-84.552,84.728c-6.24,6.256-6.232,16.384,0.024,22.624c3.12,3.12,7.208,4.672,11.304,4.672
		C169.107,125.267,173.203,123.699,176.331,120.563z"/>
	<path style="fill:#141F38;" d="M356.675,110.595l-78.944,79.104c-6.24,6.256-6.232,16.384,0.024,22.624
		c3.12,3.12,7.208,4.672,11.304,4.672c4.104,0,8.2-1.568,11.328-4.696l78.944-79.104c6.24-6.256,6.232-16.384-0.024-22.624
		C373.051,104.331,362.915,104.339,356.675,110.595z"/>
</g>
<g>
</g>
<g>
</g>
<g>
</g>
<g>
</g>
<g>
</g>
<g>
</g>
<g>
</g>
<g>
</g>
<g>
</g>
<g>
</g>
<g>
</g>
<g>
</g>
<g>
</g>
<g>
</g>
<g>
</g>
</svg>
