<?xml version="1.0" encoding="iso-8859-1"?>
<!-- Generator: Adobe Illustrator 19.0.0, SVG Export Plug-In . SVG Version: 6.00 Build 0)  -->
<svg version="1.1" id="Layer_1" xmlns="http://www.w3.org/2000/svg" xmlns:xlink="http://www.w3.org/1999/xlink" x="0px" y="0px"
	 viewBox="0 0 504.4 504.4" style="enable-background:new 0 0 504.4 504.4;" xml:space="preserve">
<polygon style="fill:#FF7F00;" points="130.4,460.2 8,252.2 130.4,44.2 373.6,44.2 496,252.2 373.6,460.2 "/>
<polyline style="fill:#FF9700;" points="372,460.2 130.4,460.2 8,250.6 129.6,38.6 "/>
<polyline style="fill:#FF3600;" points="496.8,249 373.6,460.2 132,460.2 "/>
<polygon style="fill:#FF5B00;" points="130.4,460.2 373.6,460.2 312.8,354.6 "/>
<polyline style="fill:#FF9700;" points="7.2,255.4 130.4,44.2 372,44.2 "/>
<polygon style="fill:#FFC200;" points="130.4,41 8,252.2 191.2,146.6 "/>
<g>
	<path style="fill:#2F5068;" d="M373.6,468.2H130.4c-3.2,0-5.6,0-7.2-2.4L1.6,255.4c-1.6-2.4-1.6-4.8,0-8L123.2,38.6
		c1.6-2.4,4-2.4,7.2-2.4h244c3.2,0,5.6,0,7.2,2.4L503.2,249c1.6,2.4,1.6,4.8,0,8L380.8,465.8C379.2,468.2,376.8,468.2,373.6,468.2z
		 M134.4,452.2h234.4l117.6-200l-116.8-200H134.4l-116.8,200L134.4,452.2z"/>
	<path style="fill:#2F5068;" d="M364.8,466.6c-1.6,0-8.8-0.8-9.6-1.6L4,259.4c-2.4-1.6-4-4-4-7.2s1.6-5.6,4-7.2L351.2,41
		c2.4-1.6,13.6-1.6,16,0s4.8,4.8,4.8,7.2v406.4c0,3.2-0.8,8-4,9.6C367.2,465,365.6,466.6,364.8,466.6z M23.2,252.2L356,447.4V57
		L23.2,252.2z"/>
	<path style="fill:#2F5068;" d="M139.2,465c-1.6,0-1.6-1.6-3.2-2.4c-2.4-1.6-4.8-4-4.8-7.2V49.8c0-3.2,2.4-7.2,4.8-8.8
		c2.4-1.6,9.6-4,12-2.4L500,245c2.4,1.6,4,4,4,7.2c0,3.2-1.6,5.6-4,7.2l-348,204C151.2,464.2,140.8,465,139.2,465z M148,57v391.2
		l332.8-196L148,57z"/>
</g>
<polygon style="fill:#87C2CC;" points="252,125 139.2,316.2 364.8,316.2 "/>
<polygon style="fill:#639FA5;" points="252,161.8 139.2,316.2 364.8,316.2 "/>
<path style="fill:#2F5068;" d="M364.8,324.2H139.2c-3.2,0-5.6-0.8-7.2-4c-1.6-2.4-1.6-5.6,0-8L244.8,121c3.2-4.8,11.2-4.8,13.6,0
	l112.8,191.2c1.6,2.4,1.6,4.8,0,8C370.4,323.4,367.2,324.2,364.8,324.2z M153.6,308.2h196.8L252,141L153.6,308.2z"/>
<circle style="fill:#4BF9F4;" cx="252" cy="253.8" r="54.4"/>
<path style="fill:#BBFFFC;" d="M197.6,253.8c0-30.4,24.8-54.4,54.4-54.4"/>
<path style="fill:#33DAE2;" d="M252,199.4c30.4,0,54.4,24,54.4,54.4s-24,54.4-54.4,54.4"/>
<path style="fill:#34C7E0;" d="M306.4,253.8c0,30.4-24.8,54.4-54.4,54.4"/>
<path style="fill:#2F5068;" d="M252,316.2c-34.4,0-62.4-28-62.4-62.4s28-62.4,62.4-62.4s62.4,28,62.4,62.4S286.4,316.2,252,316.2z
	 M252,207.4c-25.6,0-46.4,20.8-46.4,46.4s20.8,46.4,46.4,46.4s46.4-20.8,46.4-46.4S277.6,207.4,252,207.4z"/>
<g>
</g>
<g>
</g>
<g>
</g>
<g>
</g>
<g>
</g>
<g>
</g>
<g>
</g>
<g>
</g>
<g>
</g>
<g>
</g>
<g>
</g>
<g>
</g>
<g>
</g>
<g>
</g>
<g>
</g>
</svg>
